# xmcd
#
# Track frame offsets:
#	150
#	3429
#	18813
#	31159
#	42329
#	64153
#	77742
#	90388
#	104767
#	123386
#	135330
#	150971
#
# Disc length: 2303 seconds
#
# Revision: 1
# Processed by: cddbd v1.5.2PL0 Copyright (c) Steve Scherf et al.
# Submitted via: audiograbber 1.83.01
#
DISCID=8408fd0c
DTITLE=Davina and The Vagabonds - Live @ The TIMES
DYEAR=2008
DGENRE=Blues
TTITLE0=Intro
TTITLE1=Knock Me a Kiss
TTITLE2=PushPin
TTITLE3=Muddy Water
TTITLE4=Death
TTITLE5=This Little Light of Mine
TTITLE6=DayDream
TTITLE7=Big Fish
TTITLE8=Monday Date
TTITLE9=The Clock
TTITLE10=Watching The River Flow
TTITLE11=St. Michael vs. The Devil
EXTD=
EXTT0=
EXTT1=
EXTT2=
EXTT3=
EXTT4=
EXTT5=
EXTT6=
EXTT7=
EXTT8=
EXTT9=
EXTT10=
EXTT11=
PLAYORDER=
